<?xml version="1.0" standalone="no"?>
<!DOCTYPE svg PUBLIC "-//W3C//DTD SVG 20010904//EN"
 "http://www.w3.org/TR/2001/REC-SVG-20010904/DTD/svg10.dtd">
<svg version="1.0" xmlns="http://www.w3.org/2000/svg"
 width="1707.000000pt" height="1707.000000pt" viewBox="0 0 1707.000000 1707.000000"
 preserveAspectRatio="xMidYMid meet">
<metadata>
Created by potrace 1.11, written by Peter Selinger 2001-2013
</metadata>
<g transform="translate(0.000000,1707.000000) scale(0.100000,-0.100000)"
fill="#000000" stroke="none">
<path d="M12994 15832 c-6 -4 -18 -21 -27 -38 l-16 -31 52 -42 c145 -117 276
-270 447 -526 97 -144 253 -369 260 -375 3 -3 14 -18 24 -35 11 -16 23 -34 28
-40 4 -5 58 -77 119 -160 204 -275 247 -318 554 -564 50 -40 97 -78 106 -85
65 -54 299 -236 321 -250 54 -35 93 5 76 79 -6 22 -12 50 -14 61 -2 12 -16 62
-30 110 -15 49 -29 98 -31 109 -38 151 -214 570 -301 720 -125 214 -349 443
-617 627 -234 161 -450 271 -745 378 -63 23 -132 48 -153 56 -43 16 -39 16
-53 6z"/>
<path d="M3800 15686 c-274 -96 -546 -233 -780 -394 -52 -36 -97 -68 -100 -71
-3 -4 -21 -18 -40 -31 -19 -14 -72 -58 -118 -98 -247 -219 -375 -400 -509
-717 -36 -86 -46 -109 -49 -120 -2 -5 -24 -68 -48 -140 -39 -113 -109 -352
-121 -415 -2 -12 -7 -30 -10 -40 -3 -11 -10 -42 -14 -70 -8 -47 -6 -53 15 -67
15 -9 31 -12 46 -7 22 7 99 63 163 119 32 28 38 33 130 110 89 74 116 98 139
120 12 11 48 42 81 70 166 138 263 239 375 390 115 154 300 423 430 625 247
384 262 404 424 570 130 135 141 153 110 184 -20 20 -13 21 -124 -18z"/>
<path d="M14696 14985 c-9 -13 -16 -30 -16 -38 0 -7 32 -67 71 -133 180 -302
217 -381 277 -589 37 -128 94 -354 106 -415 5 -30 48 -209 83 -345 14 -55 29
-116 33 -135 29 -123 102 -359 141 -453 29 -69 38 -110 17 -72 -31 56 -127
198 -176 260 -50 64 -212 230 -273 280 -53 44 -200 154 -309 232 -151 108
-149 106 -260 192 -264 204 -454 389 -540 525 -34 53 -51 64 -92 58 -30 -5
-30 -5 -24 -56 6 -55 7 -58 31 -159 40 -172 105 -333 182 -455 90 -142 318
-424 445 -552 93 -94 341 -317 464 -419 16 -13 47 -40 70 -60 22 -20 53 -47
70 -61 309 -260 466 -411 594 -569 98 -122 133 -161 141 -161 6 0 20 11 33 24
21 20 23 28 16 67 -19 103 -28 462 -16 629 25 321 25 794 1 915 -3 11 -7 38
-10 60 -44 319 -184 659 -370 900 -65 85 -224 244 -330 330 -96 78 -312 225
-331 225 -7 0 -19 -11 -28 -25z"/>
<path d="M2074 14772 c-296 -207 -482 -401 -635 -662 -40 -67 -118 -228 -124
-255 -1 -5 -5 -17 -8 -25 -20 -47 -69 -224 -82 -291 -3 -13 -7 -35 -9 -49 -5
-25 -9 -53 -21 -142 -27 -202 -25 -403 10 -818 24 -287 24 -673 1 -803 0 -5
13 -19 30 -33 l31 -24 74 96 c41 53 79 101 84 108 6 6 37 42 70 81 70 81 189
201 295 300 89 82 264 242 294 268 235 204 498 461 612 598 292 351 422 593
484 898 39 194 38 201 -25 200 -26 0 -36 -9 -80 -76 -47 -72 -178 -228 -235
-281 -14 -13 -45 -43 -70 -66 -87 -81 -187 -163 -355 -291 -327 -249 -392
-302 -524 -435 -110 -111 -175 -192 -253 -316 -34 -56 -69 -110 -75 -120 -7
-11 3 26 23 81 19 55 60 195 89 310 49 189 68 273 135 594 11 51 22 103 25
115 2 11 6 32 9 46 3 14 8 36 11 50 3 14 7 34 9 46 14 70 60 250 82 314 35
103 137 309 228 462 42 70 76 131 76 136 0 8 -52 62 -61 62 -2 0 -54 -35 -115
-78z"/>
<path d="M15922 13740 c-12 -12 -22 -22 -22 -24 0 -2 14 -41 30 -87 70 -193
99 -346 102 -524 2 -103 -8 -322 -17 -390 -2 -16 -7 -77 -10 -135 -5 -103 -10
-175 -20 -335 -3 -44 -8 -123 -11 -175 -3 -52 -7 -122 -9 -155 -13 -187 -19
-318 -19 -380 1 -67 12 -226 18 -262 2 -10 7 -61 11 -113 4 -52 8 -108 10
-125 2 -16 7 -68 10 -115 4 -47 8 -95 10 -107 6 -39 -12 -25 -20 15 -30 162
-145 471 -247 662 -89 168 -107 188 -648 730 -229 228 -437 439 -462 468 -52
57 -68 62 -99 31 -17 -17 -19 -28 -14 -72 25 -206 128 -523 246 -758 63 -127
259 -419 641 -958 300 -423 425 -640 555 -965 35 -88 71 -168 80 -178 14 -16
56 -19 70 -4 3 3 75 280 98 377 24 104 133 478 228 781 57 181 130 457 142
538 15 108 14 93 31 260 8 83 8 438 0 510 -4 30 -9 75 -12 100 -5 40 -14 99
-30 187 -62 345 -318 884 -557 1176 -43 53 -54 56 -85 27z"/>
<path d="M910 13478 c-229 -325 -353 -587 -454 -968 -67 -255 -74 -326 -71
-710 3 -360 14 -440 107 -765 22 -77 44 -156 50 -175 5 -19 13 -44 18 -55 4
-11 25 -72 45 -135 20 -63 59 -185 87 -270 72 -224 238 -784 238 -806 0 -2 16
-4 35 -4 43 0 52 14 98 140 70 195 186 449 238 521 10 15 19 30 19 33 0 16
165 275 472 741 348 529 427 663 511 870 41 100 109 316 122 390 10 59 24 151
30 205 4 30 9 58 11 62 7 10 -31 28 -60 28 -17 0 -34 -13 -57 -42 -62 -81
-232 -261 -562 -598 -224 -227 -348 -364 -420 -462 -108 -146 -234 -446 -323
-768 l-34 -125 5 115 c3 63 8 138 10 165 13 137 29 407 29 485 0 56 -9 192
-19 270 -1 14 -6 68 -9 120 -4 52 -9 113 -11 135 -2 22 -7 74 -10 115 -3 41
-8 95 -10 120 -2 25 -7 77 -10 115 -11 143 -15 182 -20 250 -26 296 -29 352
-28 480 1 157 27 314 78 470 l36 109 -23 18 c-13 10 -30 18 -38 18 -8 0 -44
-41 -80 -92z"/>
<path d="M5303 13246 c-30 -56 -87 -156 -124 -224 -38 -67 -69 -124 -69 -127
0 -3 -11 -22 -23 -43 -13 -20 -42 -71 -64 -112 -22 -41 -123 -226 -225 -410
-102 -184 -204 -371 -228 -415 -24 -44 -62 -114 -85 -155 -23 -41 -95 -172
-160 -290 -65 -118 -129 -235 -143 -260 -13 -25 -38 -70 -54 -100 -17 -30 -54
-98 -83 -150 -65 -117 -416 -755 -475 -865 -23 -44 -60 -109 -80 -145 -21 -36
-61 -110 -90 -165 -30 -55 -64 -116 -77 -135 -13 -19 -23 -38 -23 -41 0 -4
-25 -51 -55 -104 -30 -54 -55 -99 -55 -100 0 -2 -17 -34 -39 -72 -21 -37 -55
-99 -76 -137 l-38 -69 64 -61 c89 -84 155 -143 218 -196 29 -25 59 -50 65 -55
6 -6 40 -33 76 -60 36 -28 67 -52 70 -55 21 -24 311 -215 355 -235 12 -5 638
-10 1475 -11 l1455 -2 157 105 c128 86 329 237 384 288 6 5 42 37 80 70 73 63
160 142 206 187 l28 26 -138 249 c-149 268 -188 338 -234 423 -17 30 -43 78
-58 105 -26 47 -157 285 -222 405 -17 30 -38 69 -48 85 -16 28 -34 61 -118
215 -19 36 -56 103 -82 150 -26 47 -64 117 -85 155 -21 39 -61 111 -88 160
-28 50 -64 115 -80 145 -16 30 -41 75 -55 100 -14 25 -38 70 -55 100 -16 30
-53 98 -82 150 -29 52 -67 122 -85 155 -18 33 -45 83 -60 110 -199 363 -389
710 -457 835 -46 85 -88 162 -93 170 -5 8 -22 40 -39 70 -16 30 -48 89 -70
130 -66 118 -75 139 -67 147 4 5 667 10 1473 11 l1465 4 -6 -94 c-4 -51 -9
-118 -11 -148 -6 -61 -11 -136 -20 -255 -5 -79 -10 -142 -20 -252 -3 -32 -7
-88 -10 -125 -10 -137 -18 -236 -30 -378 -3 -30 -7 -89 -10 -130 -3 -41 -7
-100 -10 -130 -3 -30 -7 -89 -10 -130 -3 -41 -8 -95 -10 -120 -4 -44 -11 -135
-20 -255 -3 -33 -8 -91 -11 -130 -3 -38 -7 -95 -9 -125 -3 -30 -7 -86 -10
-125 -3 -38 -8 -97 -11 -130 -8 -95 -13 -154 -19 -245 -4 -47 -8 -101 -10
-120 -2 -19 -6 -78 -10 -130 -4 -52 -8 -111 -10 -130 -2 -19 -6 -69 -9 -110
-7 -82 -15 -190 -21 -260 -2 -25 -7 -81 -10 -125 -4 -44 -8 -101 -10 -126 -3
-26 -7 -80 -10 -120 -6 -90 -13 -177 -19 -244 -3 -27 -8 -90 -12 -140 -3 -49
-8 -108 -10 -130 -2 -22 -6 -76 -9 -120 -3 -44 -7 -100 -10 -125 -2 -25 -7
-79 -10 -120 -3 -41 -8 -91 -10 -110 -2 -19 -7 -71 -10 -115 -3 -44 -10 -105
-15 -135 -5 -30 -12 -70 -15 -88 -9 -56 -62 -198 -99 -270 -67 -127 -161 -218
-296 -288 l-75 -39 -1215 1 -1215 1 -64 -31 c-78 -38 -143 -101 -176 -172 -38
-81 -42 -132 -15 -206 36 -100 87 -161 179 -213 l44 -25 3356 -2 c2961 -2
3618 1 3696 16 11 2 39 7 62 11 51 8 130 81 170 158 24 45 28 64 28 137 0 127
-37 192 -151 272 -27 19 -59 38 -70 41 -10 4 -494 9 -1074 12 -580 4 -1151 7
-1269 8 -208 1 -215 1 -265 26 -112 57 -192 129 -263 236 -61 93 -118 235
-138 345 -23 130 -31 202 -49 460 -2 30 -7 87 -10 125 -4 39 -9 99 -12 135 -3
36 -7 88 -9 115 -6 62 -13 158 -20 250 -3 39 -7 93 -10 120 -2 28 -7 91 -10
140 -3 50 -8 106 -10 125 -4 31 -11 115 -20 242 -1 24 -5 75 -9 113 -3 39 -8
102 -11 140 -3 39 -7 95 -10 125 -3 30 -7 89 -10 130 -3 41 -7 95 -10 120 -2
25 -6 81 -10 125 -3 44 -8 100 -10 125 -2 25 -7 83 -10 130 -3 47 -8 105 -10
130 -3 25 -7 81 -10 125 -3 44 -8 103 -10 130 -2 28 -7 82 -10 120 -3 39 -7
93 -10 120 -3 28 -7 86 -10 130 -4 44 -8 103 -10 130 -2 28 -7 86 -10 130 -3
44 -8 100 -10 125 -2 25 -6 83 -10 130 -3 47 -8 103 -10 125 -4 39 -14 155
-20 245 -7 106 -16 217 -20 250 -3 19 -7 76 -10 125 -3 50 -7 110 -10 135 -2
25 -7 90 -10 145 -3 55 -8 116 -11 136 -4 33 -1 37 24 42 34 7 2801 7 2860 0
23 -3 42 -9 42 -13 0 -4 -75 -144 -166 -311 -184 -338 -226 -415 -253 -462
-10 -18 -46 -84 -81 -147 -105 -191 -123 -224 -140 -255 -14 -26 -49 -90 -165
-300 -18 -34 -188 -341 -273 -495 -13 -25 -40 -74 -60 -110 -19 -36 -43 -78
-52 -95 -10 -16 -31 -55 -48 -85 -16 -30 -100 -182 -186 -338 -86 -156 -156
-285 -156 -287 0 -2 -13 -26 -29 -53 -23 -40 -194 -347 -281 -507 -12 -22 -31
-58 -44 -80 -40 -72 -87 -157 -189 -344 l-101 -183 60 -55 c132 -122 200 -182
319 -282 96 -80 374 -272 495 -340 239 -137 535 -262 750 -317 30 -8 64 -17
75 -19 69 -18 210 -44 330 -60 131 -17 493 -12 644 10 25 3 62 9 81 11 19 3
42 7 50 9 8 2 31 7 50 10 111 19 408 110 507 156 24 10 46 19 49 19 13 0 341
165 391 197 29 18 55 33 58 33 20 0 383 257 475 335 113 98 146 128 224 205
l89 87 -40 74 c-22 41 -51 94 -65 119 -67 119 -968 1750 -1113 2015 -45 82
-84 153 -135 245 -29 52 -65 118 -80 145 -15 28 -64 118 -110 200 -46 83 -99
179 -118 215 -19 36 -78 144 -132 240 -53 96 -114 207 -135 245 -21 39 -52 95
-69 126 -17 31 -98 177 -179 326 l-149 270 -3179 0 -3180 0 -56 -101z m173
-428 c65 -117 125 -226 134 -243 9 -16 92 -167 185 -335 92 -168 179 -325 193
-350 13 -25 57 -103 97 -175 39 -71 88 -159 107 -195 20 -36 145 -263 278
-505 466 -846 721 -1310 848 -1542 l110 -203 -116 -1 c-281 -2 -3541 1 -3764
4 -136 1 -250 6 -254 9 -3 4 34 80 84 170 77 141 156 285 297 543 18 33 68
123 110 200 43 77 91 165 108 195 16 30 51 93 77 140 60 108 147 267 515 935
164 297 321 583 350 635 29 52 89 160 133 240 98 178 124 225 149 270 11 19
48 87 83 150 86 157 151 270 155 270 2 0 56 -96 121 -212z m6355 22 c50 -91
104 -187 119 -215 15 -27 62 -113 105 -190 43 -77 92 -165 108 -195 16 -30 47
-85 68 -122 22 -36 39 -69 39 -72 0 -3 13 -27 28 -53 16 -27 56 -97 89 -158
34 -60 72 -130 86 -155 89 -163 305 -554 330 -600 17 -30 49 -89 72 -130 39
-69 55 -99 135 -245 15 -27 74 -133 130 -235 56 -102 118 -214 138 -250 31
-58 60 -110 156 -282 14 -27 37 -67 49 -90 13 -24 37 -68 54 -98 54 -98 239
-434 251 -456 l11 -21 -2074 -2 c-1141 -1 -2075 1 -2075 4 0 10 455 849 536
988 19 32 34 61 34 63 0 3 20 39 43 82 24 42 60 106 79 142 20 36 47 85 60
110 41 74 81 147 168 305 45 83 95 173 110 200 47 85 511 927 540 980 15 28
36 66 47 85 18 32 144 260 205 370 14 25 34 61 45 80 11 19 40 69 63 110 75
132 142 232 151 223 4 -4 49 -82 100 -173z"/>
<path d="M16763 11345 c0 -107 -11 -336 -17 -372 -2 -10 -7 -45 -10 -78 -11
-97 -17 -125 -42 -223 -21 -82 -121 -363 -159 -447 -57 -127 -312 -802 -369
-976 -21 -65 -65 -259 -81 -359 -3 -19 -7 -46 -10 -60 -3 -14 -7 -41 -10 -60
-16 -105 -60 -320 -65 -320 -3 0 -3 30 0 68 13 139 3 405 -21 557 -66 433
-176 692 -578 1358 -37 61 -70 119 -74 127 -4 8 -19 33 -32 55 -14 22 -32 54
-41 70 -8 17 -24 46 -36 65 -11 19 -41 82 -65 140 -23 58 -50 110 -59 116 -9
7 -26 9 -42 5 -26 -7 -27 -10 -26 -72 1 -73 13 -264 19 -300 2 -13 6 -55 9
-94 4 -38 8 -81 10 -95 3 -14 7 -47 11 -75 3 -27 13 -93 21 -145 9 -52 17
-104 19 -115 37 -264 140 -679 277 -1110 112 -354 148 -475 179 -600 10 -44
24 -93 29 -110 5 -16 12 -46 15 -65 3 -19 8 -42 10 -50 2 -8 7 -31 10 -50 3
-19 8 -42 10 -50 2 -8 7 -37 10 -65 3 -27 10 -77 14 -110 8 -52 7 -372 -1
-445 -2 -20 4 -29 32 -42 33 -17 35 -17 44 0 5 9 59 91 119 182 99 149 215
307 448 610 232 302 408 625 522 960 37 107 91 300 100 355 3 17 10 50 15 75
6 25 14 68 18 95 3 28 8 58 10 69 2 10 6 44 9 75 4 31 8 67 11 81 21 130 21
735 -1 803 -2 7 -6 41 -10 75 -8 92 -40 267 -76 417 -16 72 -35 150 -41 175
-13 57 -16 60 -65 63 l-40 2 0 -110z"/>
<path d="M168 11242 c-12 -2 -23 -32 -43 -115 -82 -344 -108 -584 -109 -982 0
-294 22 -506 80 -755 14 -58 27 -114 29 -125 3 -11 21 -72 41 -135 87 -279
224 -570 383 -815 66 -103 210 -298 256 -349 69 -75 382 -487 480 -631 38 -55
70 -102 71 -104 12 -15 90 31 80 48 -4 7 -10 40 -24 146 -11 85 -3 321 13 400
2 11 7 38 9 60 7 54 13 83 37 195 12 52 25 113 30 135 22 104 62 251 187 685
60 208 104 369 117 430 10 47 65 320 69 345 3 17 10 62 16 100 17 111 20 128
25 155 2 14 7 45 10 70 3 25 8 56 10 70 9 50 20 152 29 265 4 44 9 100 11 125
2 25 7 120 10 211 l7 166 -37 7 c-21 4 -41 4 -45 -1 -4 -4 -18 -39 -30 -78
-30 -92 -78 -186 -292 -568 -200 -355 -251 -453 -307 -577 -50 -111 -124 -329
-146 -430 -23 -104 -44 -215 -49 -255 -4 -27 -9 -68 -11 -90 -22 -172 -21
-456 1 -575 3 -18 2 -21 -5 -10 -5 8 -12 33 -15 55 -4 22 -11 56 -16 75 -6 19
-30 134 -55 255 -48 231 -68 309 -115 452 -46 141 -62 183 -183 473 -133 320
-135 325 -154 367 -167 387 -220 546 -253 753 -6 41 -13 86 -16 100 -12 79
-21 216 -23 351 l-1 97 -27 4 c-16 2 -36 2 -45 0z"/>
<path d="M15095 8980 c-4 -6 -11 -25 -16 -43 -21 -66 -60 -203 -64 -222 -3
-11 -16 -69 -29 -130 -14 -60 -28 -128 -31 -150 -4 -22 -8 -42 -10 -45 -1 -3
-6 -27 -9 -55 -4 -27 -8 -61 -11 -75 -7 -40 -14 -81 -20 -135 -4 -27 -8 -61
-10 -75 -2 -14 -7 -52 -10 -85 -3 -33 -8 -71 -10 -85 -6 -34 -20 -185 -30
-330 -4 -47 -8 -103 -11 -125 -2 -22 -6 -85 -9 -140 -3 -55 -7 -134 -10 -175
-3 -41 -7 -122 -10 -180 -10 -211 -34 -517 -51 -645 -7 -57 -25 -185 -30 -220
-19 -119 -55 -232 -167 -520 -71 -183 -74 -200 -41 -221 21 -14 29 -15 51 -5
36 17 508 331 721 480 808 567 1325 1126 1564 1691 67 158 84 205 116 320 68
241 93 412 97 660 5 280 -4 326 -64 315 -32 -6 -33 -8 -65 -90 -77 -196 -214
-464 -315 -616 -105 -158 -177 -246 -349 -428 -70 -74 -134 -141 -142 -151 -8
-9 -41 -46 -73 -82 -123 -140 -236 -289 -431 -568 -67 -96 -128 -185 -136
-197 -128 -192 -316 -465 -336 -488 -25 -29 -25 -29 -18 -5 4 14 17 39 29 55
52 72 132 244 155 335 5 19 18 73 30 120 25 100 46 247 50 345 8 214 1 565
-14 655 -3 14 -7 43 -11 65 -3 22 -17 101 -30 175 -13 74 -27 149 -30 165 -3
17 -8 46 -11 65 -3 19 -7 46 -10 60 -11 63 -66 368 -70 390 -8 44 -43 273 -49
325 -4 28 -14 56 -23 63 -19 15 -48 16 -57 2z"/>
<path d="M1892 8803 c-5 -10 -13 -62 -16 -115 -4 -53 -8 -105 -10 -115 -2 -10
-7 -43 -11 -73 -4 -30 -9 -62 -10 -70 -2 -8 -6 -37 -9 -65 -4 -27 -8 -61 -11
-75 -2 -14 -7 -43 -10 -65 -3 -22 -7 -51 -10 -65 -2 -14 -7 -43 -10 -65 -3
-22 -10 -65 -15 -95 -5 -30 -12 -77 -16 -105 -3 -27 -8 -57 -9 -67 -9 -43 -21
-131 -31 -223 -3 -33 -8 -63 -10 -66 -6 -11 -18 -255 -17 -379 0 -145 11 -423
18 -442 2 -7 6 -31 9 -53 26 -204 133 -488 236 -624 22 -30 38 -56 35 -60 -3
-3 -9 -1 -13 5 -4 5 -52 71 -108 145 -55 73 -116 157 -134 184 -67 100 -297
413 -399 545 -181 234 -251 314 -521 593 -69 72 -134 139 -145 151 -54 56
-146 169 -196 241 -117 167 -157 239 -372 675 -17 35 -28 46 -50 48 -49 6 -57
-33 -53 -258 8 -411 85 -718 270 -1090 199 -398 483 -740 926 -1114 20 -17
179 -143 225 -179 66 -51 180 -133 320 -229 94 -64 175 -121 180 -125 6 -5 33
-23 60 -40 28 -17 113 -71 190 -120 161 -103 326 -203 387 -234 35 -18 44 -19
64 -8 15 7 24 21 24 35 0 18 -87 239 -141 359 -60 133 -100 296 -144 585 -8
48 -18 137 -30 260 -7 75 -15 148 -20 190 -2 19 -7 82 -10 140 -3 58 -8 116
-10 130 -2 14 -7 66 -10 115 -4 50 -8 108 -11 130 -2 22 -6 69 -9 105 -5 62
-10 113 -21 210 -9 90 -32 278 -40 330 -2 19 -7 53 -10 75 -34 280 -166 853
-220 957 -17 33 -67 40 -82 11z"/>
<path d="M14430 7093 c-230 -239 -416 -593 -595 -1127 -149 -446 -346 -1019
-410 -1191 -73 -198 -279 -590 -393 -750 -20 -27 -58 -75 -84 -106 -47 -56
-54 -72 -42 -103 12 -30 56 -21 494 99 74 20 325 78 485 110 506 104 908 266
1275 514 58 40 227 167 240 181 3 3 39 34 80 70 118 101 293 281 385 396 21
27 42 51 45 54 10 9 106 143 158 222 65 97 166 277 226 403 54 113 169 400
186 464 11 42 10 46 -12 63 -12 9 -28 18 -35 18 -11 0 -63 -56 -233 -249 -304
-346 -453 -475 -720 -621 -136 -74 -177 -97 -290 -162 -144 -83 -352 -206
-410 -243 -19 -12 -84 -53 -145 -90 -376 -233 -670 -431 -839 -564 -38 -30
-65 -48 -61 -40 10 15 122 155 143 177 16 18 155 227 183 277 161 288 256 567
308 911 18 119 23 161 37 284 39 355 96 698 158 939 l24 94 -32 34 -32 35 -94
-99z"/>
<path d="M2552 7010 c-30 -28 -28 -52 17 -241 33 -138 62 -274 86 -399 3 -14
7 -36 9 -50 3 -14 8 -43 11 -65 3 -22 7 -47 10 -55 2 -8 6 -33 9 -55 3 -22 7
-58 11 -80 18 -122 28 -198 40 -300 7 -54 43 -237 61 -310 110 -433 310 -807
589 -1101 17 -17 39 -42 50 -55 19 -23 19 -23 -15 2 -141 103 -358 252 -505
344 -80 51 -468 285 -527 318 -203 114 -387 216 -473 262 -268 143 -425 230
-489 272 -164 106 -312 246 -621 587 -44 49 -82 93 -83 97 -9 23 -42 29 -72
14 -16 -9 -30 -19 -30 -23 0 -8 54 -154 99 -265 187 -466 521 -934 896 -1253
113 -96 334 -261 385 -286 14 -7 32 -17 40 -24 46 -36 294 -164 435 -224 181
-78 479 -173 615 -195 19 -3 42 -8 50 -10 8 -2 67 -13 130 -24 63 -11 129 -23
145 -26 48 -9 238 -46 258 -51 39 -9 63 -14 87 -19 14 -2 117 -27 230 -56 275
-68 256 -66 275 -30 15 31 15 31 -30 78 -111 118 -272 366 -391 603 -124 248
-209 466 -474 1205 -187 523 -217 599 -295 750 -136 262 -225 397 -371 555
-23 25 -52 57 -65 71 -13 14 -36 33 -50 42 -24 16 -27 16 -47 -3z"/>
<path d="M13280 5338 c-105 -60 -150 -98 -325 -273 -157 -157 -203 -206 -384
-410 -251 -283 -589 -629 -766 -784 -173 -152 -492 -329 -850 -472 -11 -4 -54
-17 -95 -29 -100 -28 -105 -31 -108 -73 -3 -31 0 -37 20 -42 28 -6 212 -42
250 -49 15 -2 63 -12 105 -20 43 -9 87 -18 98 -20 11 -2 76 -16 145 -30 69
-14 139 -27 155 -30 17 -3 107 -22 200 -41 94 -20 191 -40 218 -45 48 -10 310
-69 423 -96 33 -8 81 -17 105 -20 24 -3 55 -8 69 -10 47 -9 495 -12 565 -4
139 17 171 22 252 40 46 11 93 21 105 24 39 7 110 26 203 56 306 97 616 255
847 431 115 87 119 92 248 219 169 168 246 259 363 430 l57 84 -30 31 c-19 18
-33 26 -38 20 -12 -18 -159 -125 -250 -182 -196 -124 -541 -268 -737 -309
-185 -38 -268 -54 -305 -58 -88 -11 -263 -25 -400 -31 -290 -15 -422 -24 -565
-40 -102 -12 -131 -16 -155 -20 -14 -2 -50 -7 -80 -10 -63 -7 -282 -41 -355
-55 -97 -19 -210 -39 -248 -45 -47 -6 -41 9 11 25 20 7 51 18 67 25 17 7 63
27 102 44 259 109 466 302 670 625 79 125 265 499 374 751 45 105 101 230 126
278 31 62 42 95 37 110 -14 47 -49 48 -124 5z"/>
<path d="M3752 5238 c-18 -18 -14 -66 7 -96 18 -25 70 -131 155 -315 20 -44
36 -81 36 -83 0 -3 42 -92 94 -197 194 -395 340 -616 530 -803 45 -44 105 -96
132 -114 27 -19 51 -36 54 -39 3 -3 21 -14 40 -25 95 -51 163 -82 282 -127
123 -46 191 -77 143 -65 -11 3 -36 8 -55 11 -19 3 -47 8 -61 10 -15 3 -47 7
-70 10 -24 3 -87 12 -139 20 -52 8 -115 17 -140 20 -25 3 -54 7 -65 9 -11 2
-49 7 -85 11 -36 4 -72 8 -80 10 -8 2 -46 6 -85 9 -38 4 -88 9 -110 11 -60 7
-194 15 -340 20 -435 16 -583 23 -635 30 -19 3 -53 7 -75 10 -35 4 -129 20
-230 40 -16 3 -86 22 -155 41 -251 73 -502 188 -698 322 -170 116 -157 111
-181 83 -12 -13 -21 -30 -21 -38 0 -13 19 -53 30 -63 3 -3 42 -52 85 -110 155
-204 406 -437 637 -591 333 -221 770 -386 1175 -444 23 -3 57 -8 75 -11 104
-16 582 -9 663 10 65 15 132 31 316 75 114 28 218 52 230 55 13 2 44 9 69 16
25 7 56 14 70 17 14 2 60 13 104 24 43 11 97 24 120 28 22 5 149 33 281 64
221 51 474 107 553 122 27 6 32 11 32 35 0 37 -21 57 -73 71 -135 36 -215 63
-303 100 -96 41 -387 186 -489 243 -64 36 -214 148 -291 217 -65 59 -586 579
-904 904 -236 241 -304 305 -413 386 -114 85 -187 115 -215 87z"/>
<path d="M9497 3314 c-1 -1 -47 -4 -102 -8 -55 -3 -113 -8 -130 -11 -211 -39
-340 -67 -470 -103 -219 -61 -199 -58 -268 -39 -34 10 -120 31 -192 48 -143
34 -140 33 -205 44 -56 9 -78 13 -110 20 -111 25 -760 25 -832 0 -7 -2 -31 -7
-53 -10 -83 -11 -113 -18 -210 -46 -96 -28 -326 -112 -410 -150 -48 -21 -220
-93 -535 -224 -129 -53 -248 -103 -265 -111 -39 -17 -317 -128 -420 -166 -147
-55 -310 -105 -370 -113 -11 -1 -40 -5 -65 -9 -130 -20 -282 -30 -440 -30
-332 0 -605 56 -831 169 -81 41 -95 45 -115 34 -26 -13 -36 -33 -28 -52 14
-31 414 -330 527 -393 303 -168 601 -279 832 -310 28 -3 59 -8 70 -10 95 -19
414 -25 550 -10 312 33 590 127 902 306 94 54 323 202 356 231 7 5 35 26 62
47 28 20 109 84 180 142 234 190 319 250 438 310 152 77 273 117 412 135 55 7
348 8 380 1 11 -2 30 -5 43 -5 45 -2 19 -23 -95 -78 -201 -97 -397 -215 -648
-392 -183 -128 -438 -331 -574 -455 -105 -96 -469 -463 -480 -485 -9 -17 5
-34 117 -139 240 -226 229 -218 255 -180 9 13 30 39 47 58 18 19 57 64 88 100
226 257 715 741 966 955 206 175 535 408 684 484 l43 22 87 -47 c314 -170 674
-441 1067 -803 89 -83 547 -542 647 -649 64 -70 90 -92 101 -85 30 17 337 311
337 323 0 19 -317 327 -485 473 -16 14 -41 35 -55 47 -25 22 -54 46 -159 130
-165 132 -423 310 -641 440 -146 88 -504 270 -529 270 -7 0 -10 4 -7 9 12 19
170 35 331 35 306 -2 596 -116 880 -348 39 -31 77 -62 85 -69 99 -81 278 -205
440 -307 307 -192 631 -330 859 -366 162 -26 245 -31 446 -28 212 3 259 6 335
20 19 3 46 8 60 10 102 17 260 61 388 109 107 41 324 146 402 196 14 9 59 38
100 65 78 50 278 198 295 218 6 7 20 19 32 27 33 23 143 128 143 136 0 5 -10
21 -23 37 l-23 28 -56 -36 c-162 -103 -401 -172 -708 -204 -94 -10 -435 -9
-545 2 -128 13 -283 46 -407 87 -115 38 -498 179 -543 199 -22 10 -591 232
-800 312 -195 74 -360 128 -440 144 -36 7 -129 23 -165 28 -72 10 -543 27
-553 20z"/>
</g>
</svg>
